<?xml version="1.0" standalone="no"?>
<!DOCTYPE svg PUBLIC "-//W3C//DTD SVG 20010904//EN"
 "http://www.w3.org/TR/2001/REC-SVG-20010904/DTD/svg10.dtd">
<svg version="1.0" xmlns="http://www.w3.org/2000/svg"
 width="500.000000pt" height="500.000000pt" viewBox="0 0 500.000000 500.000000"
 preserveAspectRatio="xMidYMid meet">

<g transform="translate(0.000000,500.000000) scale(0.100000,-0.100000)"
fill="#DA251C" stroke="none">
<path d="M2320 4989 c-296 -28 -557 -92 -797 -195 -544 -233 -988 -652 -1252
-1180 -150 -301 -225 -572 -258 -931 -16 -171 -16 -195 0 -365 33 -360 108
-631 258 -932 323 -646 918 -1127 1611 -1301 167 -42 277 -60 470 -76 343 -29
776 47 1125 197 544 233 990 654 1253 1182 149 298 224 571 257 929 16 171 16
195 0 365 -33 360 -108 631 -258 932 -327 655 -924 1132 -1634 1307 -153 37
-206 46 -390 64 -161 16 -251 17 -385 4z m450 -244 c163 -20 222 -33 405 -85
137 -40 387 -157 530 -248 196 -125 426 -331 560 -502 201 -254 347 -544 423
-840 37 -145 40 -159 57 -305 25 -201 15 -498 -21 -685 -3 -19 -20 -87 -36
-150 -178 -689 -696 -1272 -1362 -1534 -113 -45 -134 -52 -265 -87 -342 -93
-766 -92 -1121 0 -124 32 -150 41 -269 89 -435 173 -805 476 -1067 873 -148
224 -274 533 -324 789 -53 273 -51 636 4 898 159 744 681 1364 1386 1644 193
77 330 112 575 147 99 14 400 12 525 -4z"/>
<path d="M2362 4521 c-99 -29 -151 -60 -228 -136 -110 -108 -156 -218 -156
-370 0 -144 50 -269 149 -369 96 -98 196 -143 333 -153 164 -11 298 38 408
148 103 104 154 227 154 374 0 152 -46 262 -156 370 -42 42 -94 82 -126 98
-118 57 -261 71 -378 38z"/>
<path d="M1755 4324 c-250 -142 -454 -374 -557 -634 -193 -486 -81 -1028 288
-1393 216 -214 476 -335 792 -368 261 -27 589 51 777 185 169 121 259 273 272
459 18 271 -153 519 -417 607 -100 33 -259 31 -360 -5 -209 -75 -270 -85 -372
-66 -328 64 -535 457 -463 881 19 115 48 209 90 299 20 40 34 75 32 77 -1 2
-39 -17 -82 -42z"/>
<path d="M1007 3908 c-252 -277 -406 -556 -493 -895 -140 -546 -53 -1117 242
-1594 306 -495 800 -830 1389 -941 103 -19 153 -22 355 -22 202 0 252 3 355
22 432 82 793 270 1094 571 529 528 728 1294 524 2016 -89 315 -262 615 -497
860 l-77 80 26 -52 c73 -151 126 -314 156 -483 30 -164 30 -419 0 -585 -123
-682 -626 -1207 -1291 -1346 -151 -31 -429 -31 -580 0 -150 32 -268 73 -405
141 -467 234 -798 690 -890 1225 -25 148 -23 415 4 565 30 170 87 344 156 481
14 27 23 49 21 49 -2 0 -42 -42 -89 -92z"/>
</g>
</svg>
